<?xml version="1.0" encoding="utf-8"?>
<!-- Generator: Adobe Illustrator 16.0.0, SVG Export Plug-In . SVG Version: 6.00 Build 0)  -->
<!DOCTYPE svg PUBLIC "-//W3C//DTD SVG 1.1//EN" "http://www.w3.org/Graphics/SVG/1.1/DTD/svg11.dtd">
<svg version="1.1" id="图层_1" xmlns="http://www.w3.org/2000/svg" xmlns:xlink="http://www.w3.org/1999/xlink" x="0px" y="0px"
	 width="16px" height="16px" viewBox="0 0 16 16" enable-background="new 0 0 16 16" xml:space="preserve">
<path fill="#999999" d="M7.866,3.566c0.939,0.002,1.787,0.196,2.601,0.546c0.931,0.401,1.752,0.969,2.51,1.637
	c0.641,0.563,1.22,1.186,1.755,1.85c0.184,0.228,0.172,0.416,0.029,0.627c-0.394,0.583-0.843,1.118-1.329,1.622
	c-0.661,0.684-1.393,1.279-2.226,1.743c-0.71,0.396-1.463,0.673-2.271,0.785c-1.001,0.141-1.973,0.022-2.92-0.325
	c-1.002-0.367-1.877-0.941-2.683-1.631c-0.771-0.66-1.452-1.406-2.072-2.21C1.092,7.991,1.089,7.863,1.25,7.636
	c0.721-1.02,1.581-1.904,2.592-2.638C4.511,4.512,5.231,4.125,6.02,3.87C6.636,3.67,7.269,3.568,7.866,3.566L7.866,3.566z
	 M10.941,5.304c0.844,1.546,0.361,3.286-0.746,4.223c-1.155,0.979-2.79,1.086-4.036,0.255c-0.749-0.499-1.231-1.19-1.427-2.07
	C4.536,6.833,4.685,6.006,5.132,5.227C3.929,5.895,2.969,6.83,2.13,7.904c0.382,0.478,0.779,0.93,1.208,1.354
	C3.722,9.64,4.129,9.995,4.57,10.312c0.798,0.574,1.661,0.996,2.637,1.168c0.621,0.109,1.242,0.109,1.86-0.017
	c0.917-0.187,1.734-0.594,2.485-1.139c0.891-0.646,1.644-1.435,2.294-2.321c0.032-0.044,0.032-0.071-0.004-0.111
	c-0.245-0.272-0.482-0.55-0.732-0.817c-0.561-0.593-1.17-1.13-1.856-1.576C11.15,5.433,11.045,5.369,10.941,5.304L10.941,5.304z
	 M5.663,7.113c0.016,0.051,0.027,0.134,0.063,0.201C5.793,7.438,5.96,7.489,6.119,7.449c0.15-0.037,0.236-0.153,0.258-0.316
	C6.403,6.943,6.425,6.75,6.482,6.569c0.22-0.7,0.709-1.083,1.431-1.175c0.21-0.026,0.354-0.184,0.35-0.396
	c-0.002-0.194-0.126-0.315-0.32-0.307C7.869,4.694,7.793,4.708,7.719,4.72C7.286,4.794,6.885,4.95,6.544,5.234
	C5.969,5.715,5.739,6.361,5.663,7.113L5.663,7.113z"/>
</svg>
