<?xml version="1.0" encoding="utf-8"?>
<!-- Generator: Adobe Illustrator 16.0.0, SVG Export Plug-In . SVG Version: 6.00 Build 0)  -->
<!DOCTYPE svg PUBLIC "-//W3C//DTD SVG 1.1//EN" "http://www.w3.org/Graphics/SVG/1.1/DTD/svg11.dtd">
<svg version="1.1" id="图层_1" xmlns="http://www.w3.org/2000/svg" xmlns:xlink="http://www.w3.org/1999/xlink" x="0px" y="0px"
	 width="16px" height="16px" viewBox="0 0 16 16" enable-background="new 0 0 16 16" xml:space="preserve">
<g>
	<path fill="#FFFFFF" d="M13.387,4.803h-4.15c0.263-0.058,0.55-0.145,0.809-0.26c1.238-0.461,2.104-1.354,2.131-2.132
		c0.029-0.403-0.199-0.72-0.604-0.922c-0.174-0.058-0.375-0.115-0.576-0.115c-0.721,0-1.471,0.576-2.221,1.7
		C8.489,3.534,8.23,3.967,8.087,4.283C7.972,3.967,7.77,3.534,7.48,3.103C7.193,2.613,6.876,2.238,6.589,1.95
		C6.156,1.547,5.724,1.374,5.292,1.374c-0.662,0-1.44,0.433-1.383,1.152C3.938,2.9,4.14,3.276,4.543,3.649
		c0.375,0.346,0.894,0.663,1.498,0.894c0.288,0.115,0.576,0.202,0.807,0.26H2.613c-0.835,0-1.527,0.691-1.527,1.526
		C1.086,7.193,1.979,8,2.815,8l0,0v4.609c0,1.095,0.807,2.017,1.9,2.017h6.596c1.097,0,1.875-0.922,1.875-2.017V8
		c-0.229,0.058,0,0,0,0l0,0c0.834,0,1.729-0.807,1.729-1.671C14.914,5.494,14.223,4.803,13.387,4.803L13.387,4.803L13.387,4.803z
		 M9.184,3.333c0.344-0.519,0.861-1.238,1.524-1.411c0.548-0.144,1.269,0.259,0.864,0.893c-0.375,0.605-1.039,1.008-1.699,1.268
		c-0.491,0.2-1.01,0.315-1.354,0.373C8.661,4.168,8.893,3.737,9.184,3.333L9.184,3.333L9.184,3.333z M4.398,2.498V2.383
		c0.115-0.576,0.98-0.576,1.384-0.403c0.576,0.26,0.95,0.835,1.268,1.354c0.259,0.433,0.46,0.864,0.575,1.152
		C7.279,4.428,6.761,4.313,6.243,4.111C5.695,3.881,4.37,3.246,4.398,2.498L4.398,2.498L4.398,2.498z M1.576,6.329
		c0-0.547,0.374-0.922,0.95-0.922h5.186v2.017H2.815C2.239,7.424,1.576,6.905,1.576,6.329L1.576,6.329L1.576,6.329z M3.392,12.609V8
		c0-0.029,0.23,0.201,0,0h4.32v6.05H4.831C4.024,14.05,3.392,13.416,3.392,12.609L3.392,12.609L3.392,12.609z M12.609,8v4.609
		c0,0.807-0.346,1.439-1.153,1.439H8.288V8H12.609C12.609,8,12.609,7.971,12.609,8L12.609,8L12.609,8z M13.186,7.424H8.288V5.407
		h5.187c0.574,0,0.949,0.375,0.949,0.922S13.762,7.424,13.186,7.424L13.186,7.424L13.186,7.424z"/>
</g>
</svg>
