<?xml version="1.0" encoding="utf-8"?>
<!-- Generator: Adobe Illustrator 16.0.0, SVG Export Plug-In . SVG Version: 6.00 Build 0)  -->
<!DOCTYPE svg PUBLIC "-//W3C//DTD SVG 1.1//EN" "http://www.w3.org/Graphics/SVG/1.1/DTD/svg11.dtd">
<svg version="1.1" id="图层_1" xmlns="http://www.w3.org/2000/svg" xmlns:xlink="http://www.w3.org/1999/xlink" x="0px" y="0px"
	 width="16px" height="16px" viewBox="0 0 16 16" enable-background="new 0 0 16 16" xml:space="preserve">
<g>
	<path fill="#333333" d="M9.407,3.086c0,0.969-0.786,1.756-1.756,1.756S5.895,4.055,5.895,3.086c0-0.968,0.787-1.755,1.755-1.755
		C8.619,1.332,9.407,2.118,9.407,3.086L9.407,3.086L9.407,3.086z M11.373,6.209c0.403,0,0.81-0.153,1.116-0.462
		c0.617-0.615,0.617-1.616,0-2.232c-0.307-0.31-0.713-0.463-1.116-0.463c-0.404,0-0.808,0.154-1.115,0.463
		c-0.616,0.616-0.616,1.617,0,2.232C10.565,6.056,10.971,6.209,11.373,6.209L11.373,6.209L11.373,6.209z M12.914,6.948
		c-0.773,0.001-1.404,0.63-1.404,1.405c0,0.774,0.63,1.405,1.404,1.405c0.778,0,1.404-0.63,1.404-1.405
		C14.318,7.577,13.692,6.948,12.914,6.948L12.914,6.948L12.914,6.948z M11.375,10.845c-0.314,0-0.632,0.123-0.87,0.363
		c-0.479,0.479-0.479,1.257,0,1.736c0.238,0.238,0.556,0.357,0.87,0.357c0.313,0,0.627-0.119,0.869-0.361
		c0.479-0.478,0.479-1.254,0-1.734C12.002,10.968,11.688,10.845,11.375,10.845L11.375,10.845L11.375,10.845z M7.651,12.564
		c-0.581,0-1.052,0.475-1.052,1.053c0,0.583,0.471,1.052,1.053,1.052c0.581,0,1.052-0.47,1.052-1.051S8.232,12.564,7.651,12.564
		L7.651,12.564L7.651,12.564z M3.927,11.199c-0.225,0-0.45,0.088-0.621,0.258c-0.343,0.343-0.343,0.898,0,1.242
		c0.171,0.172,0.396,0.257,0.62,0.257c0.224,0,0.45-0.085,0.621-0.257c0.343-0.344,0.344-0.9,0-1.242
		C4.377,11.285,4.152,11.199,3.927,11.199L3.927,11.199L3.927,11.199z M2.384,7.651c-0.388,0-0.703,0.313-0.703,0.702
		c0,0.385,0.314,0.701,0.703,0.701c0.388,0,0.703-0.313,0.702-0.701C3.087,7.964,2.772,7.651,2.384,7.651L2.384,7.651L2.384,7.651z
		 M3.926,5.155L3.926,5.155c0.034,0,0.066-0.013,0.099-0.019c0.099-0.02,0.196-0.058,0.273-0.136c0.206-0.204,0.206-0.538,0-0.745
		C4.196,4.154,4.061,4.102,3.926,4.102c-0.136,0-0.27,0.053-0.373,0.154c-0.206,0.207-0.206,0.54,0,0.745
		C3.655,5.104,3.792,5.155,3.926,5.155L3.926,5.155L3.926,5.155z"/>
</g>
</svg>
