<?xml version="1.0" encoding="utf-8"?>
<!-- Generator: Adobe Illustrator 16.0.0, SVG Export Plug-In . SVG Version: 6.00 Build 0)  -->
<!DOCTYPE svg PUBLIC "-//W3C//DTD SVG 1.1//EN" "http://www.w3.org/Graphics/SVG/1.1/DTD/svg11.dtd">
<svg version="1.1" id="图层_1" xmlns="http://www.w3.org/2000/svg" xmlns:xlink="http://www.w3.org/1999/xlink" x="0px" y="0px"
	 width="16px" height="16px" viewBox="0 0 16 16" enable-background="new 0 0 16 16" xml:space="preserve">
<g>
	<path fill="#FFFFFF" d="M14.355,6.8c-0.297-0.5-0.803-0.781-1.326-0.803c-0.006-0.001-0.176-0.001-0.434-0.001
		C11.734,5.996,9.881,6,9.881,6C10.088,5.379,10.2,4.698,10.2,4.003c0-0.451-0.147-1.312-0.147-1.312
		c-0.164-0.74-0.798-1.292-1.558-1.292c-0.884,0-1.592,0.897-1.592,1.819c0,0.011,0,0.015,0,0.016
		C6.848,4.999,5.52,6.439,3.846,6.563c0,0-1.869,0-1.892,0c-0.304,0-0.55,0.258-0.55,0.574l-0.005,6.888
		c0,0.316,0.246,0.574,0.549,0.574h9.902h0.002c0.299,0,0.611-0.084,0.883-0.263c0.258-0.172,0.451-0.405,0.578-0.672l1.283-5.845
		C14.62,7.476,14.546,7.118,14.355,6.8L14.355,6.8z M2.279,7.478c0.426,0,1.151,0,1.441,0v6.209H2.275L2.279,7.478L2.279,7.478z
		 M12.486,13.335c-0.059,0.095-0.133,0.172-0.223,0.229c-0.117,0.078-0.264,0.121-0.41,0.121H11.85H4.595V7.363
		c1.796-0.451,3.12-2.104,3.183-4.1c0-0.014,0-0.029,0-0.045c0-0.226,0.091-0.469,0.246-0.65c0.081-0.096,0.249-0.256,0.471-0.256
		c0.21,0,0.36,0.091,0.452,0.166c0.121,0.103,0.209,0.244,0.248,0.4c0.052,0.309,0.129,0.863,0.129,1.124
		c0,0.582-0.094,1.169-0.27,1.695l-0.408,1.22l1.236-0.004c0.02,0,1.862-0.004,2.717-0.004c0.295,0,0.377,0.001,0.399,0.001
		c0.252,0.012,0.481,0.15,0.612,0.372c0.091,0.152,0.115,0.303,0.113,0.416L12.486,13.335L12.486,13.335z"/>
</g>
</svg>
