<?xml version="1.0" encoding="utf-8"?>
<!-- Generator: Adobe Illustrator 16.0.0, SVG Export Plug-In . SVG Version: 6.00 Build 0)  -->
<!DOCTYPE svg PUBLIC "-//W3C//DTD SVG 1.1//EN" "http://www.w3.org/Graphics/SVG/1.1/DTD/svg11.dtd">
<svg version="1.1" id="图层_1" xmlns="http://www.w3.org/2000/svg" xmlns:xlink="http://www.w3.org/1999/xlink" x="0px" y="0px"
	 width="16px" height="16px" viewBox="0 0 16 16" enable-background="new 0 0 16 16" xml:space="preserve">
<path fill="#FFFFFF" d="M4.658,2.218C4.443,2.049,4.16,1.97,3.879,1.98C3.846,1.976,3.814,1.974,3.781,1.974
	c-0.199,0-0.38,0.076-0.523,0.201c-0.021,0.014-0.042,0.028-0.06,0.043v0.016C3.039,2.401,2.939,2.638,2.939,2.9v10.196
	c0,0.263,0.1,0.5,0.259,0.669v0.021c0.03,0.026,0.063,0.046,0.095,0.066c0.139,0.108,0.305,0.173,0.488,0.173
	c0.018,0,0.035-0.001,0.052-0.002c0.295,0.021,0.598-0.059,0.825-0.237l8.102-5.205c0.402-0.321,0.402-0.838,0-1.157L4.658,2.218
	L4.658,2.218z"/>
</svg>
