<?xml version="1.0" encoding="utf-8"?>
<!-- Generator: Adobe Illustrator 16.0.0, SVG Export Plug-In . SVG Version: 6.00 Build 0)  -->
<!DOCTYPE svg PUBLIC "-//W3C//DTD SVG 1.1//EN" "http://www.w3.org/Graphics/SVG/1.1/DTD/svg11.dtd">
<svg version="1.1" id="图层_1" xmlns="http://www.w3.org/2000/svg" xmlns:xlink="http://www.w3.org/1999/xlink" x="0px" y="0px"
	 width="16px" height="16px" viewBox="0 0 16 16" enable-background="new 0 0 16 16" xml:space="preserve">
<g>
	<circle opacity="0.5" fill="#272636" cx="8" cy="8" r="6.188"/>
	<path fill="#FFFFFF" d="M7.131,5.35C7.032,5.272,6.902,5.236,6.774,5.241c-0.015-0.002-0.03-0.003-0.045-0.003
		c-0.09,0-0.173,0.034-0.239,0.092C6.479,5.336,6.47,5.343,6.461,5.35v0.006C6.388,5.433,6.343,5.542,6.343,5.663v4.673
		c0,0.12,0.045,0.229,0.118,0.307v0.009c0.014,0.013,0.029,0.021,0.044,0.031c0.063,0.049,0.14,0.078,0.223,0.078
		c0.008,0,0.017,0,0.024,0c0.136,0.009,0.274-0.027,0.378-0.109l3.714-2.384c0.185-0.147,0.185-0.385,0-0.531L7.131,5.35L7.131,5.35
		z"/>
</g>
</svg>
