<?xml version="1.0" encoding="utf-8"?>
<!-- Generator: Adobe Illustrator 16.0.0, SVG Export Plug-In . SVG Version: 6.00 Build 0)  -->
<!DOCTYPE svg PUBLIC "-//W3C//DTD SVG 1.1//EN" "http://www.w3.org/Graphics/SVG/1.1/DTD/svg11.dtd">
<svg version="1.1" id="图层_1" xmlns="http://www.w3.org/2000/svg" xmlns:xlink="http://www.w3.org/1999/xlink" x="0px" y="0px"
	 width="16px" height="16px" viewBox="0 0 16 16" enable-background="new 0 0 16 16" xml:space="preserve">
<g>
	<circle opacity="0.8" fill="#EDE5E6" cx="8" cy="8" r="6.719"/>
	<path fill="#FF7B98" d="M7.009,5.845C6.911,5.778,6.781,5.747,6.653,5.75C6.638,5.749,6.624,5.748,6.608,5.748
		c-0.091,0-0.174,0.03-0.239,0.08c-0.01,0.006-0.02,0.011-0.028,0.017v0.006C6.269,5.917,6.224,6.012,6.224,6.115v4.043
		c0,0.104,0.045,0.197,0.118,0.265v0.008c0.014,0.012,0.029,0.019,0.043,0.027c0.064,0.043,0.14,0.067,0.224,0.067
		c0.008,0,0.016,0,0.024,0c0.134,0.009,0.273-0.023,0.376-0.095l3.704-2.063c0.184-0.127,0.184-0.332,0-0.458L7.009,5.845
		L7.009,5.845z"/>
</g>
</svg>
