<?xml version="1.0" encoding="utf-8"?>
<!-- Generator: Adobe Illustrator 16.0.0, SVG Export Plug-In . SVG Version: 6.00 Build 0)  -->
<!DOCTYPE svg PUBLIC "-//W3C//DTD SVG 1.1//EN" "http://www.w3.org/Graphics/SVG/1.1/DTD/svg11.dtd">
<svg version="1.1" id="图层_1" xmlns="http://www.w3.org/2000/svg" xmlns:xlink="http://www.w3.org/1999/xlink" x="0px" y="0px"
	 width="16px" height="16px" viewBox="0 0 16 16" enable-background="new 0 0 16 16" xml:space="preserve">
<path fill="#FFFFFF" d="M3.43,13.271"/>
<path fill="#FFFFFF" d="M3.014,13.666c-0.833,0-1.507-0.334-1.507-0.749V2.397c0-0.414,0.674-0.75,1.507-0.75
	c0.832,0,1.506,0.336,1.506,0.75v10.52C4.52,13.332,3.846,13.666,3.014,13.666L3.014,13.666z"/>
<path fill="#FFFFFF" d="M12.193,13.666c-0.832,0-1.507-0.334-1.507-0.749V2.397c0-0.414,0.675-0.75,1.507-0.75
	c0.834,0,1.507,0.336,1.507,0.75v10.52C13.7,13.332,13.027,13.666,12.193,13.666L12.193,13.666z"/>
<path fill="#FFFFFF" d="M13.258,13.271"/>
</svg>
