<?xml version="1.0" encoding="utf-8"?>
<!-- Generator: Adobe Illustrator 16.0.0, SVG Export Plug-In . SVG Version: 6.00 Build 0)  -->
<!DOCTYPE svg PUBLIC "-//W3C//DTD SVG 1.1//EN" "http://www.w3.org/Graphics/SVG/1.1/DTD/svg11.dtd">
<svg version="1.1" id="图层_1" xmlns="http://www.w3.org/2000/svg" xmlns:xlink="http://www.w3.org/1999/xlink" x="0px" y="0px"
	 width="16px" height="16px" viewBox="0 0 16 16" enable-background="new 0 0 16 16" xml:space="preserve">
<path fill="#FFFFFF" d="M11.572,14.591c-0.164,0-0.328-0.041-0.508-0.138l-2.776-1.457c-0.068-0.041-0.165-0.069-0.275-0.069
	c-0.096,0-0.206,0.028-0.275,0.056l-2.763,1.474c-0.165,0.097-0.33,0.138-0.522,0.138c-0.33,0-0.646-0.148-0.866-0.396
	c-0.22-0.248-0.303-0.577-0.248-0.906l0.536-3.079c0.027-0.192-0.042-0.385-0.179-0.521L1.471,7.526
	C1.155,7.223,1.045,6.784,1.182,6.371C1.32,5.959,1.663,5.67,2.089,5.602l3.079-0.454C5.36,5.121,5.539,4.997,5.622,4.832
	l1.375-2.804C7.188,1.643,7.574,1.409,8,1.409c0.425,0,0.811,0.234,1.004,0.619l1.373,2.804c0.098,0.179,0.262,0.289,0.455,0.316
	l3.078,0.454c0.427,0.069,0.77,0.357,0.906,0.756c0.138,0.412,0.025,0.852-0.274,1.154L12.33,9.686
	c-0.15,0.139-0.207,0.328-0.18,0.521l0.521,3.064c0.058,0.33-0.026,0.658-0.245,0.905C12.221,14.439,11.902,14.591,11.572,14.591z
	 M11.395,13.753c0.068,0.026,0.123,0.04,0.166,0.04c0.099,0,0.191-0.04,0.262-0.123c0.068-0.083,0.082-0.193,0.068-0.261
	l-0.521-3.065c-0.082-0.439,0.067-0.921,0.396-1.224l2.213-2.186c0.082-0.083,0.109-0.206,0.082-0.344
	c-0.039-0.123-0.137-0.206-0.271-0.22l-3.08-0.454C10.255,5.848,9.855,5.573,9.663,5.16L8.288,2.371
	C8.233,2.248,8.124,2.193,8,2.193S7.766,2.261,7.697,2.385L6.322,5.162C6.13,5.561,5.731,5.849,5.278,5.917L2.2,6.371
	c-0.124,0.027-0.221,0.11-0.261,0.22v0.014c-0.042,0.124-0.014,0.234,0.082,0.33L4.247,9.12c0.33,0.315,0.468,0.771,0.398,1.224
	l-0.522,3.065c-0.014,0.067-0.014,0.164,0.069,0.247c0.068,0.082,0.164,0.123,0.261,0.123c0.069,0,0.11-0.014,0.151-0.026
	l2.776-1.458c0.179-0.109,0.399-0.164,0.632-0.164c0.207,0,0.427,0.055,0.632,0.164L11.395,13.753z"/>
</svg>
