<?xml version="1.0" encoding="utf-8"?>
<!-- Generator: Adobe Illustrator 16.0.0, SVG Export Plug-In . SVG Version: 6.00 Build 0)  -->
<!DOCTYPE svg PUBLIC "-//W3C//DTD SVG 1.1//EN" "http://www.w3.org/Graphics/SVG/1.1/DTD/svg11.dtd">
<svg version="1.1" id="图层_1" xmlns="http://www.w3.org/2000/svg" xmlns:xlink="http://www.w3.org/1999/xlink" x="0px" y="0px"
	 width="16px" height="16px" viewBox="0 0 16 16" enable-background="new 0 0 16 16" xml:space="preserve">
<path fill="#FFFFFF" d="M11.721,14.646c-0.148,0-0.324-0.051-0.474-0.127l-3.242-1.621L4.739,14.52
	c-0.324,0.174-0.748,0.149-1.047-0.074c-0.3-0.225-0.474-0.623-0.399-0.998l0.673-3.488L1.397,7.563
	C1.124,7.29,1.024,6.865,1.124,6.516c0.125-0.374,0.424-0.648,0.823-0.698l3.566-0.649l1.595-3.241
	C7.282,1.58,7.631,1.355,8.005,1.355S8.754,1.58,8.902,1.928l1.597,3.241l3.565,0.624c0.373,0.049,0.697,0.324,0.797,0.698
	c0.125,0.374,0.025,0.772-0.25,1.047l-2.567,2.42l0.647,3.487c0.076,0.4-0.1,0.773-0.397,0.998
	C12.145,14.568,11.945,14.646,11.721,14.646z"/>
</svg>
