<?xml version="1.0" encoding="utf-8"?>
<!-- Generator: Adobe Illustrator 16.0.0, SVG Export Plug-In . SVG Version: 6.00 Build 0)  -->
<!DOCTYPE svg PUBLIC "-//W3C//DTD SVG 1.1//EN" "http://www.w3.org/Graphics/SVG/1.1/DTD/svg11.dtd">
<svg version="1.1" id="图层_1" xmlns="http://www.w3.org/2000/svg" xmlns:xlink="http://www.w3.org/1999/xlink" x="0px" y="0px"
	 width="16px" height="16px" viewBox="0 0 16 16" enable-background="new 0 0 16 16" xml:space="preserve">
<path fill="#FF7B98" d="M8,1.219c-3.746,0-6.781,3.036-6.781,6.78c0,3.747,3.036,6.782,6.781,6.782S14.781,11.746,14.781,8
	C14.781,4.255,11.746,1.219,8,1.219L8,1.219z M12.084,6.104l-4.692,4.794c-0.017,0.023-0.034,0.047-0.054,0.066
	c-0.185,0.189-0.482,0.189-0.667,0L4.34,8.6c-0.184-0.187-0.184-0.49,0-0.677c0.184-0.187,0.482-0.187,0.667,0l1.99,2.022
	l4.421-4.518c0.184-0.187,0.482-0.187,0.666,0C12.268,5.615,12.268,5.917,12.084,6.104L12.084,6.104z"/>
</svg>
