<?xml version="1.0" encoding="utf-8"?>
<!-- Generator: Adobe Illustrator 16.0.0, SVG Export Plug-In . SVG Version: 6.00 Build 0)  -->
<!DOCTYPE svg PUBLIC "-//W3C//DTD SVG 1.1//EN" "http://www.w3.org/Graphics/SVG/1.1/DTD/svg11.dtd">
<svg version="1.1" id="图层_1" xmlns="http://www.w3.org/2000/svg" xmlns:xlink="http://www.w3.org/1999/xlink" x="0px" y="0px"
	 width="200px" height="200px" viewBox="0 0 200 200" enable-background="new 0 0 200 200" xml:space="preserve">
<path fill="#CCCCCC" d="M192.308,7.692h-7.692v15.385h-23.076V7.692H38.461v15.385H15.385V7.692H7.692
	C3.454,7.692,0,11.146,0,15.385v169.23c0,4.238,3.454,7.692,7.692,7.692h7.692v-7.692h23.077v7.692h123.078v-7.692h23.076v7.692
	h7.692c4.239,0,7.692-3.454,7.692-7.692V15.385C200,11.146,196.547,7.692,192.308,7.692z M38.461,161.539H15.385v-23.078h23.077
	V161.539z M38.461,115.385H15.385V92.308h23.077V115.385z M38.461,69.231H15.385V46.154h23.077V69.231z M135.293,105.046
	l-50.024,29.177c-0.815,0.408-1.708,0.601-2.592,0.601c-1.062,0-2.092-0.284-3.031-0.839c-1.692-1.023-2.723-2.854-2.723-4.808
	V70.831c0-1.961,1.031-3.792,2.723-4.815c1.708-1.031,3.838-1.124,5.616-0.231l50.023,29.169c1.945,0.961,3.176,2.907,3.176,5.046
	S137.23,104.084,135.293,105.046z M184.615,161.539h-23.076v-23.078h23.076V161.539z M184.615,115.385h-23.076V92.308h23.076
	V115.385z M184.615,69.231h-23.076V46.154h23.076V69.231z"/>
</svg>
