<?xml version="1.0" encoding="utf-8"?>
<!-- Generator: Adobe Illustrator 16.0.0, SVG Export Plug-In . SVG Version: 6.00 Build 0)  -->
<!DOCTYPE svg PUBLIC "-//W3C//DTD SVG 1.1//EN" "http://www.w3.org/Graphics/SVG/1.1/DTD/svg11.dtd">
<svg version="1.1" id="图层_1" xmlns="http://www.w3.org/2000/svg" xmlns:xlink="http://www.w3.org/1999/xlink" x="0px" y="0px"
	 width="16px" height="16px" viewBox="0 0 16 16" enable-background="new 0 0 16 16" xml:space="preserve">
<path fill="#FF7B98" d="M7.778,1.283C8.354,1.275,8.749,1.356,9.086,1.58c0.112,0.09,0.23,0.187,0.344,0.277
	c0.2-0.043,0.372-0.126,0.604-0.164c0.911-0.163,1.702,0.716,1.515,1.649c-0.15,0.732-0.522,1.396-1.044,1.755
	c0.006,0.006,0.006,0.015,0.013,0.021c0.471,0.148,0.897,0.492,1.27,0.763c1.277,0.948,2.128,2.3,2.538,4.128
	c0.091,0.418,0.105,0.865,0.105,1.373c0,1.68-0.501,2.846-1.762,3.248c-0.381,0.117-0.927,0.082-1.427,0.082H5.255
	c-1.186,0-1.872,0.053-2.566-0.463c-0.911-0.672-1.338-2.398-1.008-4.047c0.335-1.656,1.051-3.12,2.143-3.994
	C4.15,5.949,4.479,5.68,4.845,5.455c0.217-0.11,0.44-0.224,0.65-0.335L5.158,4.76c-0.284-0.357-0.5-0.776-0.627-1.292
	C4.301,2.551,4.756,1.96,5.412,1.76c0.15-0.045,0.367-0.112,0.584-0.075C6.22,1.724,6.398,1.82,6.6,1.842
	c0.2-0.209,0.492-0.389,0.806-0.478C7.518,1.335,7.651,1.305,7.778,1.283L7.778,1.283z M7.533,9.994v0.643
	c-0.507-0.008-1.523-0.18-1.457,0.402c0.053,0.432,0.994,0.293,1.457,0.283c-0.015,0.457,0.008,0.725,0.365,0.801
	c0.075,0.012,0.217,0.021,0.284-0.016c0.24-0.119,0.262-0.418,0.247-0.793c0.501,0.008,1.412,0.15,1.493-0.283
	c0.105-0.604-0.992-0.432-1.493-0.424c0.007-0.201,0.007-0.42,0.015-0.621c0.499,0.008,1.62,0.15,1.47-0.471
	C9.817,9.092,8.951,9.211,8.436,9.219v-0.36C8.869,8.39,9.295,7.919,9.72,7.449C9.832,7.3,9.9,7.09,9.766,6.911
	c-0.112-0.148-0.366-0.178-0.531-0.06C8.815,7.157,8.362,7.71,8.003,8.091C7.995,8.084,7.988,8.084,7.981,8.076
	c-0.097-0.105-0.204-0.217-0.3-0.329c-0.187-0.23-0.574-0.739-0.804-0.896c-0.173-0.112-0.457-0.202-0.591,0
	C6.153,7.046,6.241,7.337,6.36,7.494C6.697,7.971,7.197,8.39,7.548,8.867L7.524,9.249C7.01,9.24,5.936,9.068,6.076,9.719
	C6.174,10.131,7.047,10.002,7.533,9.994L7.533,9.994z"/>
</svg>
