<?xml version="1.0" encoding="utf-8"?>
<!-- Generator: Adobe Illustrator 16.0.0, SVG Export Plug-In . SVG Version: 6.00 Build 0)  -->
<!DOCTYPE svg PUBLIC "-//W3C//DTD SVG 1.1//EN" "http://www.w3.org/Graphics/SVG/1.1/DTD/svg11.dtd">
<svg version="1.1" id="图层_1" xmlns="http://www.w3.org/2000/svg" xmlns:xlink="http://www.w3.org/1999/xlink" x="0px" y="0px"
	 width="16px" height="16px" viewBox="0 0 16 16" enable-background="new 0 0 16 16" xml:space="preserve">
<path fill="#FF7B98" d="M3.293,9.424h2.538c0.059,0,0.108,0.023,0.138,0.068C5.997,9.539,6.003,9.59,5.982,9.641
	c-0.145,0.273-0.821,1.646-0.642,3.107c0.051,0.41,0.271,0.961,1.034,1.264c0.198,0.078,0.566,0.113,0.845,0.123
	c0.668,0.018,0.804-0.109,0.861-0.166c0.002-0.002,0.004-0.004,0.007-0.008c0.215-0.219,0.197-0.533,0.176-0.932
	c-0.012-0.205-0.024-0.436-0.013-0.699c0.065-0.707,0.159-1.088,0.346-1.408c0.582-0.986,1.563-1.484,1.751-1.5h3.722
	c0.167,0,0.304-0.136,0.304-0.304V3.202c0-0.168-0.137-0.304-0.304-0.304h-2.345c-0.013,0-0.024,0.001-0.036,0.002h-1.492
	c-0.019-0.014-0.036-0.03-0.053-0.044C9.815,2.584,8.945,1.864,7.509,1.864h-2.99c-0.766,0-1.382,0.417-1.609,1.087
	C2.907,2.958,2.905,2.963,2.903,2.969C2.871,3.087,2.789,3.332,2.685,3.642C2.289,4.818,1.627,6.786,1.627,7.84
	C1.627,8.875,2.203,9.424,3.293,9.424L3.293,9.424z M13.765,8.814h-1.737V3.505h1.737V8.814z M3.261,3.836
	c0.109-0.324,0.188-0.56,0.227-0.697c0.146-0.418,0.53-0.668,1.031-0.668h2.99c1.218,0,1.938,0.597,2.245,0.853
	c0.139,0.115,0.222,0.184,0.355,0.184h1.311v5.307h-1.074c-0.287,0-0.735,0.25-1.061,0.484c-0.347,0.252-0.841,0.684-1.212,1.316
	c-0.271,0.463-0.364,0.98-0.428,1.666c-0.001,0.004-0.001,0.01-0.001,0.014c-0.015,0.299,0,0.559,0.013,0.768
	c0.009,0.162,0.02,0.359,0.002,0.447c-0.228,0.045-0.875,0.01-1.062-0.063c-0.396-0.158-0.608-0.41-0.653-0.773
	c-0.162-1.316,0.5-2.609,0.576-2.752C6.527,9.908,6.531,9.9,6.531,9.9c0.11-0.238,0.09-0.514-0.052-0.735
	C6.339,8.947,6.096,8.814,5.831,8.814H3.293c-0.752,0-1.059-0.282-1.059-0.975C2.234,6.886,2.901,4.901,3.261,3.836L3.261,3.836z"/>
</svg>
