<?xml version="1.0" encoding="utf-8"?>
<!-- Generator: Adobe Illustrator 16.0.0, SVG Export Plug-In . SVG Version: 6.00 Build 0)  -->
<!DOCTYPE svg PUBLIC "-//W3C//DTD SVG 1.1//EN" "http://www.w3.org/Graphics/SVG/1.1/DTD/svg11.dtd">
<svg version="1.1" id="图层_1" xmlns="http://www.w3.org/2000/svg" xmlns:xlink="http://www.w3.org/1999/xlink" x="0px" y="0px"
	 width="16px" height="16px" viewBox="0 0 16 16" enable-background="new 0 0 16 16" xml:space="preserve">
<path fill="#FF7B98" d="M1.904,9.23c0.265,0.352,0.663,0.553,1.093,0.553h2.934c-0.1,0.22-0.16,0.439-0.174,0.563l-0.045,0.191
	c-0.206,0.818-0.171,1.68,0.102,2.499l0.09,0.248c0.185,0.553,0.721,0.939,1.304,0.939h0.036c0.76,0,1.429-0.646,1.429-1.383v-0.356
	c0-1.529,1.006-2.725,2.419-2.973V1.775H4.494c-0.622,0-1.173,0.426-1.338,1.033L1.673,7.987C1.55,8.413,1.637,8.875,1.904,9.23z
	 M14.382,7.987V3.164c0-0.764-0.622-1.385-1.387-1.385h-1.198v7.686h1.198C13.734,9.465,14.382,8.775,14.382,7.987z"/>
</svg>
