<?xml version="1.0" encoding="utf-8"?>
<!-- Generator: Adobe Illustrator 16.0.0, SVG Export Plug-In . SVG Version: 6.00 Build 0)  -->
<!DOCTYPE svg PUBLIC "-//W3C//DTD SVG 1.1//EN" "http://www.w3.org/Graphics/SVG/1.1/DTD/svg11.dtd">
<svg version="1.1" id="图层_1" xmlns="http://www.w3.org/2000/svg" xmlns:xlink="http://www.w3.org/1999/xlink" x="0px" y="0px"
	 width="16px" height="16px" viewBox="0 0 16 16" enable-background="new 0 0 16 16" xml:space="preserve">
<path fill="#FF7B98" d="M12.714,6.575h-2.542c-0.059,0-0.108-0.026-0.138-0.071S10,6.407,10.021,6.357
	c0.144-0.273,0.821-1.649,0.641-3.112c-0.05-0.411-0.27-0.964-1.035-1.267C9.429,1.9,9.06,1.864,8.781,1.856
	c-0.67-0.02-0.805,0.11-0.862,0.165C7.916,2.023,7.914,2.026,7.912,2.028C7.696,2.249,7.714,2.564,7.736,2.964
	c0.012,0.204,0.024,0.435,0.013,0.7c-0.066,0.708-0.16,1.089-0.347,1.409C6.82,6.063,5.838,6.56,5.648,6.575H4.27H1.921
	c-0.168,0-0.304,0.136-0.304,0.304v5.926c0,0.169,0.136,0.306,0.304,0.306H4.27c0.012,0,0.024-0.003,0.036-0.005H5.8
	c0.017,0.016,0.037,0.031,0.053,0.046c0.328,0.271,1.2,0.993,2.638,0.993h2.995c0.767,0,1.384-0.417,1.612-1.09
	c0.002-0.006,0.004-0.011,0.006-0.018c0.031-0.118,0.114-0.362,0.219-0.674c0.396-1.178,1.06-3.147,1.06-4.203
	C14.383,7.124,13.807,6.575,12.714,6.575z M2.226,7.184h1.74v5.318h-1.74V7.184z M12.746,12.171
	c-0.108,0.325-0.188,0.56-0.228,0.698c-0.145,0.418-0.53,0.668-1.032,0.668H8.491c-1.219,0-1.94-0.598-2.249-0.854
	c-0.139-0.114-0.222-0.185-0.355-0.185H4.574V7.184H5.65c0.287,0,0.737-0.25,1.061-0.486C7.061,6.447,7.554,6.014,7.926,5.38
	c0.272-0.462,0.366-0.982,0.429-1.668c0-0.004,0-0.009,0.001-0.013C8.37,3.4,8.355,3.14,8.344,2.93
	C8.334,2.767,8.323,2.569,8.341,2.48c0.229-0.044,0.876-0.009,1.063,0.065c0.396,0.156,0.611,0.41,0.655,0.773
	c0.162,1.317-0.501,2.614-0.577,2.757C9.474,6.089,9.471,6.097,9.471,6.097C9.359,6.336,9.38,6.61,9.522,6.833
	c0.142,0.219,0.385,0.351,0.649,0.351h2.542c0.753,0,1.061,0.283,1.061,0.978C13.774,9.117,13.105,11.104,12.746,12.171z"/>
</svg>
