<?xml version="1.0" encoding="utf-8"?>
<!-- Generator: Adobe Illustrator 16.0.0, SVG Export Plug-In . SVG Version: 6.00 Build 0)  -->
<!DOCTYPE svg PUBLIC "-//W3C//DTD SVG 1.1//EN" "http://www.w3.org/Graphics/SVG/1.1/DTD/svg11.dtd">
<svg version="1.1" id="图层_1" xmlns="http://www.w3.org/2000/svg" xmlns:xlink="http://www.w3.org/1999/xlink" x="0px" y="0px"
	 width="16px" height="16px" viewBox="0 0 16 16" enable-background="new 0 0 16 16" xml:space="preserve">
<path fill="#FF7B98" d="M14.096,6.769c-0.265-0.351-0.663-0.553-1.093-0.553h-2.934c0.1-0.219,0.16-0.438,0.174-0.563l0.045-0.191
	c0.206-0.818,0.171-1.68-0.102-2.499l-0.09-0.248c-0.185-0.553-0.721-0.94-1.304-0.94H8.757c-0.76,0-1.429,0.646-1.429,1.383v0.356
	c0,1.529-1.005,2.725-2.419,2.973v7.737h6.597c0.622,0,1.173-0.426,1.338-1.033l1.483-5.179C14.45,7.587,14.363,7.125,14.096,6.769z
	 M1.618,8.013v4.823c0,0.764,0.622,1.385,1.387,1.385h1.198V6.535H3.005C2.266,6.535,1.618,7.225,1.618,8.013z"/>
</svg>
