<?xml version="1.0" encoding="utf-8"?>
<!-- Generator: Adobe Illustrator 16.0.0, SVG Export Plug-In . SVG Version: 6.00 Build 0)  -->
<!DOCTYPE svg PUBLIC "-//W3C//DTD SVG 1.1//EN" "http://www.w3.org/Graphics/SVG/1.1/DTD/svg11.dtd">
<svg version="1.1" id="图层_1" xmlns="http://www.w3.org/2000/svg" xmlns:xlink="http://www.w3.org/1999/xlink" x="0px" y="0px"
	 width="16px" height="16px" viewBox="0 0 16 16" enable-background="new 0 0 16 16" xml:space="preserve">
<g>
	<polygon fill="#F1496E" points="14.668,1.332 1.332,14.668 14.668,14.668 	"/>
	<g>
		<path fill="#FFFFFF" d="M13.573,7.941c-0.229-0.163-0.547-0.109-0.711,0.12l-2.692,3.79l-2.005-1.426
			c-0.23-0.163-0.55-0.109-0.712,0.121c-0.164,0.229-0.11,0.547,0.12,0.711l2.422,1.721c0,0,0,0,0,0.002
			c0.036,0.023,0.074,0.043,0.112,0.059c0.213,0.082,0.461,0.014,0.6-0.182l0,0l2.987-4.205C13.858,8.423,13.805,8.104,13.573,7.941
			L13.573,7.941z"/>
	</g>
</g>
</svg>
