<?xml version="1.0" encoding="utf-8"?>
<!-- Generator: Adobe Illustrator 16.0.0, SVG Export Plug-In . SVG Version: 6.00 Build 0)  -->
<!DOCTYPE svg PUBLIC "-//W3C//DTD SVG 1.1//EN" "http://www.w3.org/Graphics/SVG/1.1/DTD/svg11.dtd">
<svg version="1.1" id="图层_1" xmlns="http://www.w3.org/2000/svg" xmlns:xlink="http://www.w3.org/1999/xlink" x="0px" y="0px"
	 width="16px" height="16px" viewBox="0 0 16 16" enable-background="new 0 0 16 16" xml:space="preserve">
<g>
	<path fill="#942DA4" d="M14.654,6.545l-0.002-0.012l0.001-0.006l-0.001,0.004l-0.156-0.827L13.542,4.65L12.954,4l-0.1-0.11
		l-0.134-0.064L12.548,3.74l-0.006,0.01l-0.013-0.019l-1.851-0.898l-0.193-0.022L9.542,2.701L8.218,2.546L7.66,2.481l-1.537,0.27
		l-0.801,0.14l-0.454,0.08L4.716,3.05L4.118,3.361l-0.11,0.058l-0.958,0.5L3.001,3.905l-1.54,2.148L1.45,6.068L1.449,6.062
		L1.436,6.09L1.397,6.143l0.005,0.021L1.346,6.286l0.215,0.831l0.013,0.012l0.033,0.03L1.569,7.13l0.685,0.849l2.928,2.837
		l0.675,0.63l-0.002-0.004l0.004,0.007l0.35,0.339l0.158,0.152L6.54,12.11l0,0l0.205,0.197l1.235,1.198v0.011l0.003,0.002
		l0.005-0.006l1.419-1.216l0.131-0.103l0,0l0.011-0.009l0.075-0.058l0.632-0.481l3.814-3.928l0.461-0.418
		c0.001,0.001,0.001,0.003,0.002,0.004l0.01-0.012l0.1-0.689L14.654,6.545z"/>
	<g>
		<polygon fill="#FDE9FF" points="12.954,4 12.753,4.028 13.358,4.828 13.542,4.65 		"/>
		
			<linearGradient id="SVGID_1_" gradientUnits="userSpaceOnUse" x1="-1561.9614" y1="-1166.6807" x2="-1561.4805" y2="-1166.6807" gradientTransform="matrix(0.8058 0.5922 -0.5922 0.8058 580.2148 1868.917)">
			<stop  offset="0" style="stop-color:#F5E3FF"/>
			<stop  offset="1" style="stop-color:#E999FF"/>
		</linearGradient>
		<polygon fill="url(#SVGID_1_)" points="12.854,3.89 12.721,3.824 12.548,3.74 12.542,3.75 12.446,3.965 12.633,3.87 12.753,4.028 
			12.954,4 		"/>
		<polygon fill="#E6E3FF" points="12.446,3.965 12.396,4.077 12.753,4.028 12.633,3.87 		"/>
		<polygon fill="#F5E3FF" points="12.753,4.028 12.396,4.077 11.134,6.892 11.154,6.945 13.358,4.828 		"/>
		
			<linearGradient id="SVGID_2_" gradientUnits="userSpaceOnUse" x1="-1564.999" y1="-1165.6743" x2="-1563.7939" y2="-1165.6743" gradientTransform="matrix(0.8058 0.5922 -0.5922 0.8058 580.2148 1868.917)">
			<stop  offset="0" style="stop-color:#F5E3FF"/>
			<stop  offset="1" style="stop-color:#E999FF"/>
		</linearGradient>
		<polygon fill="url(#SVGID_2_)" points="10.485,2.811 9.542,2.701 10.052,4.042 		"/>
		
			<linearGradient id="SVGID_3_" gradientUnits="userSpaceOnUse" x1="-1561.6753" y1="-1165.458" x2="-1562.1648" y2="-1163.6426" gradientTransform="matrix(0.8058 0.5922 -0.5922 0.8058 580.2148 1868.917)">
			<stop  offset="0.3146" style="stop-color:#F5E3FF"/>
			<stop  offset="0.4627" style="stop-color:#F4DEFF"/>
			<stop  offset="0.6312" style="stop-color:#F2D1FF"/>
			<stop  offset="0.8098" style="stop-color:#EEBAFF"/>
			<stop  offset="0.9942" style="stop-color:#E99AFF"/>
			<stop  offset="1" style="stop-color:#E999FF"/>
		</linearGradient>
		<polygon fill="url(#SVGID_3_)" points="12.396,4.077 12.163,4.109 10.416,5.001 11.134,6.892 		"/>
		
			<linearGradient id="SVGID_4_" gradientUnits="userSpaceOnUse" x1="-1564.1738" y1="-1165.8086" x2="-1561.9102" y2="-1165.8086" gradientTransform="matrix(0.8058 0.5922 -0.5922 0.8058 580.2148 1868.917)">
			<stop  offset="0" style="stop-color:#F5E3FF"/>
			<stop  offset="1" style="stop-color:#E999FF"/>
		</linearGradient>
		<polygon fill="url(#SVGID_4_)" points="12.542,3.75 12.528,3.731 10.679,2.833 10.485,2.811 10.052,4.042 10.182,4.385 
			12.163,4.109 12.446,3.965 		"/>
		
			<linearGradient id="SVGID_5_" gradientUnits="userSpaceOnUse" x1="-2443.0879" y1="-1163.166" x2="-2440.9023" y2="-1163.166" gradientTransform="matrix(-0.8058 -0.5922 -0.5922 0.8058 -2650.4609 -505.2251)">
			<stop  offset="0" style="stop-color:#F5E3FF"/>
			<stop  offset="1" style="stop-color:#E999FF"/>
		</linearGradient>
		<polygon fill="url(#SVGID_5_)" points="6.122,2.751 5.322,2.891 5.909,4.378 6.662,4.758 		"/>
		
			<linearGradient id="SVGID_6_" gradientUnits="userSpaceOnUse" x1="-1567.7251" y1="-1163.8174" x2="-1565.562" y2="-1163.8174" gradientTransform="matrix(0.8058 0.5922 -0.5922 0.8058 580.2148 1868.917)">
			<stop  offset="0" style="stop-color:#F5E3FF"/>
			<stop  offset="1" style="stop-color:#E999FF"/>
		</linearGradient>
		<polygon fill="url(#SVGID_6_)" points="6.844,4.849 7.313,4.784 8.218,2.546 7.659,2.481 6.122,2.751 6.662,4.758 		"/>
		
			<linearGradient id="SVGID_7_" gradientUnits="userSpaceOnUse" x1="-2445.5117" y1="-1164.4502" x2="-2443.0317" y2="-1164.4502" gradientTransform="matrix(-0.8058 -0.5922 -0.5922 0.8058 -2650.4609 -505.2251)">
			<stop  offset="0" style="stop-color:#F5E3FF"/>
			<stop  offset="1" style="stop-color:#E999FF"/>
		</linearGradient>
		<polygon fill="url(#SVGID_7_)" points="9.917,4.422 10.052,4.042 9.542,2.701 8.218,2.546 7.313,4.784 		"/>
		<polygon fill="#6F007A" points="9.917,4.422 7.313,4.784 7.212,5.035 8.79,5.831 9.561,5.438 		"/>
		<polygon fill="#FDE9FF" points="9.561,5.438 8.79,5.831 9.325,6.102 		"/>
		
			<linearGradient id="SVGID_8_" gradientUnits="userSpaceOnUse" x1="-1568.6821" y1="-1162.6582" x2="-1566.9331" y2="-1162.6582" gradientTransform="matrix(0.8058 0.5922 -0.5922 0.8058 580.2148 1868.917)">
			<stop  offset="0" style="stop-color:#F5E3FF"/>
			<stop  offset="1" style="stop-color:#E999FF"/>
		</linearGradient>
		<polygon fill="url(#SVGID_8_)" points="5.909,4.378 5.322,2.891 4.868,2.97 4.715,3.05 4.911,3.875 		"/>
		
			<linearGradient id="SVGID_9_" gradientUnits="userSpaceOnUse" x1="-2441.1543" y1="-1162.4707" x2="-2440.2109" y2="-1162.4707" gradientTransform="matrix(-0.8058 -0.5922 -0.5922 0.8058 -2650.4609 -505.2251)">
			<stop  offset="0" style="stop-color:#F5E3FF"/>
			<stop  offset="1" style="stop-color:#E999FF"/>
		</linearGradient>
		<polygon fill="url(#SVGID_9_)" points="4.911,3.875 4.715,3.05 4.118,3.361 4.206,3.519 		"/>
		<polygon fill="#F5E3FF" points="4.118,3.361 4.008,3.419 4.206,3.519 		"/>
		<polygon fill="#E999FF" points="10.416,5.001 9.561,5.438 9.53,5.523 11.063,6.704 		"/>
		<polygon fill="#EE7DFF" points="9.53,5.523 9.441,5.772 11.103,6.811 11.063,6.704 		"/>
		<polygon fill="#FDE9FF" points="11.103,6.811 9.441,5.772 9.325,6.102 11.09,6.99 11.134,6.892 		"/>
		<polygon fill="#6F007A" points="7.212,5.035 6.844,4.849 6.692,4.87 6.926,5.738 		"/>
		
			<linearGradient id="SVGID_10_" gradientUnits="userSpaceOnUse" x1="-1564.6514" y1="-1162.5474" x2="-1564.1592" y2="-1161.7314" gradientTransform="matrix(0.8058 0.5922 -0.5922 0.8058 580.2148 1868.917)">
			<stop  offset="0.0056" style="stop-color:#EE7DFF"/>
			<stop  offset="0.1067" style="stop-color:#942DA4"/>
			<stop  offset="0.2261" style="stop-color:#A940B9"/>
			<stop  offset="0.4304" style="stop-color:#C75AD8"/>
			<stop  offset="0.6306" style="stop-color:#DD6EED"/>
			<stop  offset="0.8234" style="stop-color:#EA79FB"/>
			<stop  offset="1" style="stop-color:#EE7DFF"/>
		</linearGradient>
		<polygon fill="url(#SVGID_10_)" points="7.212,5.035 6.926,5.738 7.174,6.656 8.79,5.831 		"/>
		
			<linearGradient id="SVGID_11_" gradientUnits="userSpaceOnUse" x1="-1563.6143" y1="-1159.5674" x2="-1562.9073" y2="-1163.1837" gradientTransform="matrix(0.8058 0.5922 -0.5922 0.8058 580.2148 1868.917)">
			<stop  offset="0.1067" style="stop-color:#942DA4"/>
			<stop  offset="0.2261" style="stop-color:#A940B9"/>
			<stop  offset="0.4304" style="stop-color:#C75AD8"/>
			<stop  offset="0.6306" style="stop-color:#DD6EED"/>
			<stop  offset="0.8234" style="stop-color:#EA79FB"/>
			<stop  offset="1" style="stop-color:#EE7DFF"/>
		</linearGradient>
		<polygon fill="url(#SVGID_11_)" points="8.79,5.831 7.174,6.656 7.684,8.55 8.296,9.029 9.325,6.102 		"/>
		<polygon fill="#653AA6" points="6.869,6.812 7.497,8.403 7.684,8.55 7.174,6.656 		"/>
		<polygon fill="#653AA6" points="6.926,5.738 6.692,4.87 6.134,4.948 6.684,6.341 6.869,6.812 7.174,6.656 		"/>
		<polygon fill="#EE7DFF" points="6.684,6.341 6.134,4.948 5.198,5.078 5.296,5.491 6.213,7.146 6.395,7.054 		"/>
		<polygon fill="#F5E3FF" points="4.911,3.875 4.206,3.519 5.077,5.095 5.198,5.078 		"/>
		<polygon fill="#6F007A" points="5.198,5.078 5.077,5.095 5.296,5.491 		"/>
		<polygon fill="#E999FF" points="6.395,7.054 6.295,7.299 6.456,7.59 7.497,8.403 6.869,6.812 		"/>
		<polygon fill="#EE7DFF" points="6.684,6.341 6.395,7.054 6.869,6.812 		"/>
		<polygon fill="#E95FFF" points="5.296,5.491 5.645,6.953 6.018,7.246 6.213,7.146 		"/>
		<polygon fill="#944EA4" points="6.295,7.299 6.395,7.054 6.213,7.146 6.018,7.246 6.245,7.423 6.456,7.59 		"/>
		
			<linearGradient id="SVGID_12_" gradientUnits="userSpaceOnUse" x1="-1567.7119" y1="-1160.3135" x2="-1569.426" y2="-1161.4563" gradientTransform="matrix(0.8058 0.5922 -0.5922 0.8058 580.2148 1868.917)">
			<stop  offset="0" style="stop-color:#FDE9FF"/>
			<stop  offset="0.0675" style="stop-color:#ECD1FA"/>
			<stop  offset="0.1858" style="stop-color:#D2ADF2"/>
			<stop  offset="0.3052" style="stop-color:#BE91ED"/>
			<stop  offset="0.4245" style="stop-color:#AF7DE8"/>
			<stop  offset="0.5437" style="stop-color:#A771E6"/>
			<stop  offset="0.6629" style="stop-color:#A46DE5"/>
			<stop  offset="0.6861" style="stop-color:#B98AEB"/>
			<stop  offset="0.7156" style="stop-color:#CEA7F1"/>
			<stop  offset="0.7485" style="stop-color:#DFBFF6"/>
			<stop  offset="0.7855" style="stop-color:#EDD2FA"/>
			<stop  offset="0.8291" style="stop-color:#F6DFFD"/>
			<stop  offset="0.8854" style="stop-color:#FBE7FF"/>
			<stop  offset="1" style="stop-color:#FDE9FF"/>
		</linearGradient>
		<polygon fill="url(#SVGID_12_)" points="4.206,3.519 4.008,3.419 3.037,3.926 2.585,4.557 3.544,5.308 5.077,5.095 		"/>
		<polygon fill="#E999FF" points="5.296,5.491 5.077,5.095 3.544,5.308 5.645,6.953 		"/>
		<polygon fill="#A46DE5" points="5.634,8.936 5.835,8.988 6.136,9.014 5.938,8.183 		"/>
		
			<linearGradient id="SVGID_13_" gradientUnits="userSpaceOnUse" x1="-1564.3525" y1="-1158.5967" x2="-1563.9041" y2="-1159.7791" gradientTransform="matrix(0.8058 0.5922 -0.5922 0.8058 580.2148 1868.917)">
			<stop  offset="0" style="stop-color:#F5E3FF"/>
			<stop  offset="1" style="stop-color:#EE7DFF"/>
		</linearGradient>
		<polygon fill="url(#SVGID_13_)" points="6.245,7.423 5.938,8.183 6.136,9.014 7.301,9.114 6.456,7.59 		"/>
		<polygon fill="#942DA4" points="2.205,6.693 2.699,7.877 2.742,8.073 2.703,8.038 2.051,6.817 1.588,5.95 1.782,5.679 		"/>
		
			<linearGradient id="SVGID_14_" gradientUnits="userSpaceOnUse" x1="-1569.4844" y1="-1158.041" x2="-1568.5977" y2="-1158.041" gradientTransform="matrix(0.8058 0.5922 -0.5922 0.8058 580.2148 1868.917)">
			<stop  offset="0" style="stop-color:#000040"/>
			<stop  offset="0.121" style="stop-color:#050244"/>
			<stop  offset="0.2722" style="stop-color:#15064E"/>
			<stop  offset="0.4394" style="stop-color:#2E0E5F"/>
			<stop  offset="0.6183" style="stop-color:#521977"/>
			<stop  offset="0.8044" style="stop-color:#7F2796"/>
			<stop  offset="0.882" style="stop-color:#942DA4"/>
		</linearGradient>
		<polygon fill="url(#SVGID_14_)" points="1.588,5.95 1.407,6.202 1.594,7.086 1.652,7.137 2.051,6.817 		"/>
		
			<linearGradient id="SVGID_15_" gradientUnits="userSpaceOnUse" x1="-1568.7295" y1="-1157.7764" x2="-1567.3491" y2="-1157.7764" gradientTransform="matrix(0.8058 0.5922 -0.5922 0.8058 580.2148 1868.917)">
			<stop  offset="0" style="stop-color:#942DA4"/>
			<stop  offset="0.5899" style="stop-color:#A46DE5"/>
			<stop  offset="0.6249" style="stop-color:#B78BEA"/>
			<stop  offset="0.6744" style="stop-color:#CDAEF1"/>
			<stop  offset="0.7269" style="stop-color:#DFCCF6"/>
			<stop  offset="0.7824" style="stop-color:#EDE2FA"/>
			<stop  offset="0.8422" style="stop-color:#F7F3FD"/>
			<stop  offset="0.9096" style="stop-color:#FDFCFE"/>
			<stop  offset="1" style="stop-color:#FFFFFF"/>
		</linearGradient>
		<polygon fill="url(#SVGID_15_)" points="2.051,6.817 1.652,7.137 2.703,8.038 		"/>
		<polygon fill="#942DA4" points="5.645,6.953 5.747,7.384 6.018,7.246 		"/>
		<polygon fill="#8720E7" points="6.245,7.423 6.018,7.246 5.747,7.384 5.938,8.183 		"/>
		
			<linearGradient id="SVGID_16_" gradientUnits="userSpaceOnUse" x1="-1569.5059" y1="-1159.708" x2="-1568.2886" y2="-1159.708" gradientTransform="matrix(0.8058 0.5922 -0.5922 0.8058 580.2148 1868.917)">
			<stop  offset="0.4213" style="stop-color:#000040"/>
			<stop  offset="0.4953" style="stop-color:#2A0D5C"/>
			<stop  offset="0.5756" style="stop-color:#501876"/>
			<stop  offset="0.6555" style="stop-color:#6E218A"/>
			<stop  offset="0.734" style="stop-color:#832898"/>
			<stop  offset="0.8103" style="stop-color:#902CA1"/>
			<stop  offset="0.882" style="stop-color:#942DA4"/>
		</linearGradient>
		<polygon fill="url(#SVGID_16_)" points="2.585,4.557 2.102,5.232 2.162,5.5 3.544,5.308 		"/>
		<polygon fill="#EE7DFF" points="5.645,6.953 3.544,5.308 2.162,5.5 2.699,7.877 2.801,8.124 2.918,8.224 3.701,8.43 5.747,7.384 
					"/>
		
			<linearGradient id="SVGID_17_" gradientUnits="userSpaceOnUse" x1="-1565.8579" y1="-1159.4492" x2="-1565.2867" y2="-1158.0215" gradientTransform="matrix(0.8058 0.5922 -0.5922 0.8058 580.2148 1868.917)">
			<stop  offset="0" style="stop-color:#E999FF"/>
			<stop  offset="0.4129" style="stop-color:#E897FD"/>
			<stop  offset="0.5616" style="stop-color:#E290F7"/>
			<stop  offset="0.6676" style="stop-color:#D985ED"/>
			<stop  offset="0.7534" style="stop-color:#CB74DF"/>
			<stop  offset="0.8268" style="stop-color:#BA5ECB"/>
			<stop  offset="0.8918" style="stop-color:#A442B4"/>
			<stop  offset="0.9492" style="stop-color:#8B2398"/>
			<stop  offset="1" style="stop-color:#6F007A"/>
		</linearGradient>
		<polygon fill="url(#SVGID_17_)" points="5.938,8.183 5.747,7.384 3.701,8.43 5.634,8.936 		"/>
		
			<linearGradient id="SVGID_18_" gradientUnits="userSpaceOnUse" x1="-1569.4907" y1="-1158.7344" x2="-1568.4834" y2="-1158.7344" gradientTransform="matrix(0.8058 0.5922 -0.5922 0.8058 580.2148 1868.917)">
			<stop  offset="0" style="stop-color:#000040"/>
			<stop  offset="0.2184" style="stop-color:#030142"/>
			<stop  offset="0.362" style="stop-color:#0C0348"/>
			<stop  offset="0.4841" style="stop-color:#1A0852"/>
			<stop  offset="0.5943" style="stop-color:#300E60"/>
			<stop  offset="0.6963" style="stop-color:#4B1773"/>
			<stop  offset="0.791" style="stop-color:#6C2189"/>
			<stop  offset="0.8808" style="stop-color:#932DA4"/>
			<stop  offset="0.882" style="stop-color:#942DA4"/>
		</linearGradient>
		<polygon fill="url(#SVGID_18_)" points="2.162,5.5 1.882,5.539 1.782,5.679 2.205,6.693 2.396,6.54 		"/>
		
			<linearGradient id="SVGID_19_" gradientUnits="userSpaceOnUse" x1="-1568.5469" y1="-1158.0547" x2="-1567.4478" y2="-1158.0547" gradientTransform="matrix(0.8058 0.5922 -0.5922 0.8058 580.2148 1868.917)">
			<stop  offset="0" style="stop-color:#EE7DFF"/>
			<stop  offset="0.5899" style="stop-color:#A46DE5"/>
			<stop  offset="0.6249" style="stop-color:#B78BEA"/>
			<stop  offset="0.6744" style="stop-color:#CDAEF1"/>
			<stop  offset="0.7269" style="stop-color:#DFCCF6"/>
			<stop  offset="0.7824" style="stop-color:#EDE2FA"/>
			<stop  offset="0.8422" style="stop-color:#F7F3FD"/>
			<stop  offset="0.9096" style="stop-color:#FDFCFE"/>
			<stop  offset="1" style="stop-color:#FFFFFF"/>
		</linearGradient>
		<polygon fill="url(#SVGID_19_)" points="2.396,6.54 2.205,6.693 2.699,7.877 		"/>
		<polygon fill="#942DA4" points="6.456,7.59 7.301,9.114 7.794,9.156 7.497,8.403 		"/>
		<polygon fill="#942DA4" points="7.684,8.55 7.849,9.161 8.237,9.194 8.296,9.029 		"/>
		
			<linearGradient id="SVGID_20_" gradientUnits="userSpaceOnUse" x1="-1563.27" y1="-1159.8066" x2="-1562.5381" y2="-1159.8066" gradientTransform="matrix(0.8058 0.5922 -0.5922 0.8058 580.2148 1868.917)">
			<stop  offset="0" style="stop-color:#942DA4"/>
			<stop  offset="0.3964" style="stop-color:#82178F"/>
			<stop  offset="0.7472" style="stop-color:#6F007A"/>
		</linearGradient>
		<polygon fill="url(#SVGID_20_)" points="7.497,8.403 7.794,9.156 7.849,9.161 7.684,8.55 		"/>
		
			<linearGradient id="SVGID_21_" gradientUnits="userSpaceOnUse" x1="-1562.9683" y1="-1160.7256" x2="-1561.5536" y2="-1163.0653" gradientTransform="matrix(0.8058 0.5922 -0.5922 0.8058 580.2148 1868.917)">
			<stop  offset="0.1067" style="stop-color:#942DA4"/>
			<stop  offset="0.2261" style="stop-color:#A940B9"/>
			<stop  offset="0.4304" style="stop-color:#C75AD8"/>
			<stop  offset="0.6306" style="stop-color:#DD6EED"/>
			<stop  offset="0.8234" style="stop-color:#EA79FB"/>
			<stop  offset="1" style="stop-color:#EE7DFF"/>
		</linearGradient>
		<polygon fill="url(#SVGID_21_)" points="9.325,6.102 8.296,9.029 8.512,9.198 8.862,9.149 11.076,7.021 11.09,6.99 		"/>
		
			<linearGradient id="SVGID_22_" gradientUnits="userSpaceOnUse" x1="-1562.5718" y1="-1163.0459" x2="-1560.8578" y2="-1161.0258" gradientTransform="matrix(0.8058 0.5922 -0.5922 0.8058 580.2148 1868.917)">
			<stop  offset="0.0225" style="stop-color:#942DA4"/>
			<stop  offset="0.3949" style="stop-color:#922CA3"/>
			<stop  offset="0.5454" style="stop-color:#8B2A9E"/>
			<stop  offset="0.6559" style="stop-color:#7F2796"/>
			<stop  offset="0.7467" style="stop-color:#6D218A"/>
			<stop  offset="0.8255" style="stop-color:#571A7A"/>
			<stop  offset="0.8959" style="stop-color:#3B1268"/>
			<stop  offset="0.9586" style="stop-color:#1A0852"/>
			<stop  offset="1" style="stop-color:#000040"/>
		</linearGradient>
		<polygon fill="url(#SVGID_22_)" points="11.076,7.021 8.862,9.149 10.209,8.956 		"/>
		
			<linearGradient id="SVGID_23_" gradientUnits="userSpaceOnUse" x1="-1561.249" y1="-1161.9722" x2="-1560.3723" y2="-1162.8285" gradientTransform="matrix(0.8058 0.5922 -0.5922 0.8058 580.2148 1868.917)">
			<stop  offset="0.0225" style="stop-color:#942DA4"/>
			<stop  offset="0.3105" style="stop-color:#9129A0"/>
			<stop  offset="0.6071" style="stop-color:#861D95"/>
			<stop  offset="0.9069" style="stop-color:#760881"/>
			<stop  offset="1" style="stop-color:#6F007A"/>
		</linearGradient>
		<polygon fill="url(#SVGID_23_)" points="11.19,7.041 11.101,6.996 11.076,7.021 10.209,8.956 11.795,8.729 11.825,8.715 		"/>
		<polygon fill="#F5E3FF" points="14.496,5.704 13.542,4.65 13.358,4.828 14.654,6.545 		"/>
		<polygon fill="#C359F4" points="14.654,6.545 13.358,4.828 11.154,6.945 11.292,7.087 13.383,8.141 14.501,7.283 		"/>
		<polygon fill="#A46DE5" points="11.19,7.041 11.825,8.715 13.239,8.124 13.28,8.096 		"/>
		
			<linearGradient id="SVGID_24_" gradientUnits="userSpaceOnUse" x1="-1568.9028" y1="-1161.5742" x2="-1565.5645" y2="-1161.5742" gradientTransform="matrix(0.8058 0.5922 -0.5922 0.8058 580.2148 1868.917)">
			<stop  offset="0" style="stop-color:#F9F3FF"/>
			<stop  offset="1" style="stop-color:#F5E3FF"/>
		</linearGradient>
		<polygon fill="url(#SVGID_24_)" points="3.676,4.091 5.163,5.228 6.69,5.482 6.789,5.492 3.703,4.067 		"/>
		
			<linearGradient id="SVGID_25_" gradientUnits="userSpaceOnUse" x1="-1565.3672" y1="-1166.7041" x2="-1565.2855" y2="-1161.0734" gradientTransform="matrix(0.8058 0.5922 -0.5922 0.8058 580.2148 1868.917)">
			<stop  offset="0.236" style="stop-color:#F9F3FF"/>
			<stop  offset="0.3825" style="stop-color:#F8EEFF"/>
			<stop  offset="0.5523" style="stop-color:#F6E0FF"/>
			<stop  offset="0.7338" style="stop-color:#F2C9FF"/>
			<stop  offset="0.9221" style="stop-color:#ECA9FF"/>
			<stop  offset="1" style="stop-color:#E999FF"/>
		</linearGradient>
		<polygon fill="url(#SVGID_25_)" points="12.574,3.857 10.651,2.9 7.656,2.545 4.869,3.058 3.703,4.067 6.789,5.492 8.916,5.705 
			9.521,5.565 12.382,4.315 		"/>
		
			<linearGradient id="SVGID_26_" gradientUnits="userSpaceOnUse" x1="-1562.3091" y1="-1164.812" x2="-1561.6971" y2="-1164.6897" gradientTransform="matrix(0.8058 0.5922 -0.5922 0.8058 580.2148 1868.917)">
			<stop  offset="0" style="stop-color:#F5E3FF"/>
			<stop  offset="1" style="stop-color:#EE7DFF"/>
		</linearGradient>
		<polygon fill="url(#SVGID_26_)" points="12.382,4.315 9.521,5.565 12.105,4.968 		"/>
		
			<linearGradient id="SVGID_27_" gradientUnits="userSpaceOnUse" x1="-1569.5566" y1="-1159.7759" x2="-1568.8926" y2="-1159.7759" gradientTransform="matrix(0.8058 0.5922 -0.5922 0.8058 580.2148 1868.917)">
			<stop  offset="0" style="stop-color:#B7A7FF"/>
			<stop  offset="1" style="stop-color:#EE7DFF"/>
		</linearGradient>
		<polygon fill="url(#SVGID_27_)" points="2.482,5.732 3.626,4.084 3.001,3.905 1.461,6.054 		"/>
		<polygon fill="#E999FF" points="2.482,5.732 1.461,6.054 1.397,6.143 1.577,7.035 		"/>
		<path fill="#7B57B3" d="M11.896,7.313l1.314,0.512l0.334-0.374l-0.596-1.218C12.6,6.594,12.25,6.952,11.896,7.313z"/>
		<path fill="#653AA6" d="M13.942,5.505l-0.237-0.069C13.468,5.69,13.229,5.94,12.99,6.189c-0.003,0.008-0.005,0.015-0.007,0.023
			c0.002-0.009,0.004-0.016,0.007-0.023c-0.015,0.015-0.028,0.029-0.043,0.044l0.597,1.218l0.466-0.524L13.942,5.505z"/>
		<polygon fill="#582789" points="14.01,6.927 13.544,7.451 13.548,7.458 13.544,7.451 13.21,7.825 13.568,7.965 14.044,7.64 		"/>
		<path fill="#E999FF" d="M12.939,6.218l0.008,0.016c0.015-0.015,0.028-0.029,0.043-0.044c0.09-0.293,0.106-0.61,0.171-0.913
			l-1.056-0.309L11.198,6.78l0.074,0.291l0.623,0.242c0.354-0.36,0.704-0.72,1.052-1.08L12.939,6.218z"/>
		<path fill="#EE7DFF" d="M13.161,5.276c-0.064,0.303-0.081,0.619-0.171,0.913c0.238-0.249,0.478-0.499,0.715-0.754L13.161,5.276z"
			/>
		<g>
			<path fill="#EE7DFF" d="M3.727,8.422C3.959,8.533,4.186,8.433,4.404,8.54l1.451,2.905l-0.674-0.63L3.727,8.422z"/>
			
				<linearGradient id="SVGID_28_" gradientUnits="userSpaceOnUse" x1="-3410.4692" y1="-274.9165" x2="-3410.792" y2="-275.4669" gradientTransform="matrix(-0.9987 -0.0509 -0.0509 0.9987 -3416.832 110.2099)">
				<stop  offset="0" style="stop-color:#F5E3FF"/>
				<stop  offset="1" style="stop-color:#EE7DFF"/>
			</linearGradient>
			<path fill="url(#SVGID_28_)" d="M2.426,7.808c0,0,0.631,0.294,1.301,0.614l1.455,2.394L2.254,7.979L1.569,7.13L2.426,7.808z"/>
			<g>
				
					<linearGradient id="SVGID_29_" gradientUnits="userSpaceOnUse" x1="541.3779" y1="-224.1372" x2="540.9454" y2="-221.7822" gradientTransform="matrix(0.9997 0.025 -0.025 0.9997 -540.7066 219.315)">
					<stop  offset="0.0056" style="stop-color:#F5E3FF"/>
					<stop  offset="0.1364" style="stop-color:#F3C4FF"/>
					<stop  offset="0.3727" style="stop-color:#EF91FF"/>
					<stop  offset="0.4888" style="stop-color:#EE7DFF"/>
					<stop  offset="0.6078" style="stop-color:#EA7CFE"/>
					<stop  offset="0.7267" style="stop-color:#DE7AF9"/>
					<stop  offset="0.8456" style="stop-color:#CA75F2"/>
					<stop  offset="0.9638" style="stop-color:#AE6FE9"/>
					<stop  offset="1" style="stop-color:#A46DE5"/>
				</linearGradient>
				<path fill="url(#SVGID_29_)" d="M6.713,11.278l-0.6-0.205l-0.85-0.493L4.404,8.54c0.359,0.179,0.704,0.143,0.861,0.218
					c0.393,0.189,1.689,0.346,2.517,0.435l-0.701,2.214L6.713,11.278z"/>
			</g>
			<g>
				<polygon fill="#6F007A" points="6.113,11.073 6.713,11.278 6.305,11.721 				"/>
			</g>
			<g>
				<polygon fill="#E999FF" points="5.264,10.58 6.113,11.073 6.305,11.721 6.208,11.787 5.858,11.448 				"/>
			</g>
			<g>
				<polygon fill="#A46DE5" points="6.305,11.721 6.366,11.939 6.208,11.787 				"/>
			</g>
			<g>
				<polygon fill="#E999FF" points="6.305,11.721 6.713,11.278 7.081,11.406 6.548,12.117 6.366,11.939 				"/>
			</g>
			<g>
				
					<linearGradient id="SVGID_30_" gradientUnits="userSpaceOnUse" x1="-3416.292" y1="-274.4194" x2="-3415.323" y2="-272.0938" gradientTransform="matrix(-0.9987 -0.0509 -0.0509 0.9987 -3416.832 110.2099)">
					<stop  offset="0.0393" style="stop-color:#EE7DFF"/>
					<stop  offset="1" style="stop-color:#6F007A"/>
				</linearGradient>
				<polygon fill="url(#SVGID_30_)" points="7.796,9.215 9.538,12.194 9.407,12.297 8.036,12.316 				"/>
				
					<linearGradient id="SVGID_31_" gradientUnits="userSpaceOnUse" x1="-3414.5835" y1="-275.0435" x2="-3414.7188" y2="-271.8676" gradientTransform="matrix(-0.9987 -0.0509 -0.0509 0.9987 -3416.832 110.2099)">
					<stop  offset="0.0393" style="stop-color:#EE7DFF"/>
					<stop  offset="1" style="stop-color:#582789"/>
				</linearGradient>
				<path fill="url(#SVGID_31_)" d="M7.782,9.192c0.001,0,0.001,0,0.002,0l0.012,0.022l0.24,3.102l-1.291-0.009L6.54,12.11
					L7.782,9.192z"/>
			</g>
			<g>
				<polygon fill="#6F007A" points="8.036,12.316 9.407,12.297 7.988,13.513 7.98,13.506 				"/>
				<polygon fill="#6F007A" points="7.988,13.513 7.983,13.519 7.98,13.517 7.98,13.506 				"/>
				
					<linearGradient id="SVGID_32_" gradientUnits="userSpaceOnUse" x1="543.5254" y1="-220.6973" x2="542.687" y2="-220.0068" gradientTransform="matrix(0.9997 0.025 -0.025 0.9997 -540.7066 219.315)">
					<stop  offset="0.0393" style="stop-color:#EE7DFF"/>
					<stop  offset="0.5843" style="stop-color:#A46DE5"/>
					<stop  offset="0.5856" style="stop-color:#9F68DF"/>
					<stop  offset="0.5928" style="stop-color:#8954C4"/>
					<stop  offset="0.601" style="stop-color:#7743AE"/>
					<stop  offset="0.6106" style="stop-color:#69379D"/>
					<stop  offset="0.6225" style="stop-color:#5F2E92"/>
					<stop  offset="0.6391" style="stop-color:#5A288B"/>
					<stop  offset="0.6854" style="stop-color:#582789"/>
					<stop  offset="0.9944" style="stop-color:#EE7DFF"/>
				</linearGradient>
				<polygon fill="url(#SVGID_32_)" points="8.036,12.316 7.98,13.506 6.745,12.308 				"/>
			</g>
			<g>
				
					<linearGradient id="SVGID_33_" gradientUnits="userSpaceOnUse" x1="-3419.7886" y1="-275.2256" x2="-3416.4468" y2="-273.1966" gradientTransform="matrix(-0.9987 -0.0509 -0.0509 0.9987 -3416.832 110.2099)">
					<stop  offset="0.0393" style="stop-color:#EE7DFF"/>
					<stop  offset="0.5843" style="stop-color:#A46DE5"/>
					<stop  offset="0.6024" style="stop-color:#B370EA"/>
					<stop  offset="0.6369" style="stop-color:#C975F2"/>
					<stop  offset="0.6775" style="stop-color:#DA79F8"/>
					<stop  offset="0.7279" style="stop-color:#E57BFC"/>
					<stop  offset="0.7984" style="stop-color:#EC7DFE"/>
					<stop  offset="0.9944" style="stop-color:#EE7DFF"/>
				</linearGradient>
				<path fill="url(#SVGID_33_)" d="M13.106,8.252l1.317-0.896l-4.168,4.291l-0.632,0.48l1.938-3.358
					C12.417,8.566,13.106,8.252,13.106,8.252z"/>
				
					<linearGradient id="SVGID_34_" gradientUnits="userSpaceOnUse" x1="-3417.9351" y1="-275.5977" x2="-3416.2271" y2="-272.4256" gradientTransform="matrix(-0.9987 -0.0509 -0.0509 0.9987 -3416.832 110.2099)">
					<stop  offset="0.0393" style="stop-color:#EE7DFF"/>
					<stop  offset="0.7022" style="stop-color:#582789"/>
					<stop  offset="0.9382" style="stop-color:#F5E3FF"/>
				</linearGradient>
				<path fill="url(#SVGID_34_)" d="M11.563,8.77l-1.938,3.358l-0.075,0.058l0.214-3.146C10.3,8.923,10.977,8.908,11.563,8.77z"/>
				
					<linearGradient id="SVGID_35_" gradientUnits="userSpaceOnUse" x1="-3416.0371" y1="-275.252" x2="-3416.2471" y2="-272.1456" gradientTransform="matrix(-0.9987 -0.0509 -0.0509 0.9987 -3416.832 110.2099)">
					<stop  offset="0.0393" style="stop-color:#EE7DFF"/>
					<stop  offset="1" style="stop-color:#6F007A"/>
				</linearGradient>
				<path fill="url(#SVGID_35_)" d="M8.686,9.238c0.099,0.006,0.525-0.079,1.077-0.199l-0.214,3.146l-0.011,0.009L7.784,9.192
					C8.039,9.22,8.605,9.232,8.686,9.238z"/>
			</g>
		</g>
		<path fill="#E999FF" d="M3.272,6.455C3.213,6.389,3.153,6.32,3.094,6.252L3.016,6.345l0.204,0.13L3.272,6.455z"/>
		
			<linearGradient id="SVGID_36_" gradientUnits="userSpaceOnUse" x1="-1568.1206" y1="-1158.8574" x2="-1567.8589" y2="-1158.8574" gradientTransform="matrix(0.8058 0.5922 -0.5922 0.8058 580.2148 1868.917)">
			<stop  offset="0" style="stop-color:#FDE9FF"/>
			<stop  offset="1" style="stop-color:#EE7DFF"/>
		</linearGradient>
		<path fill="url(#SVGID_36_)" d="M3.22,6.475l-0.204-0.13L2.788,6.62c0.006,0.003,0.01,0.007,0.015,0.011L3.22,6.475z"/>
		<path fill="#6F007A" d="M3.388,6.582c-0.01-0.011-0.021-0.021-0.03-0.032C3.355,6.553,3.354,6.557,3.353,6.561L3.388,6.582z"/>
		<path fill="#6F007A" d="M3.357,6.55C3.328,6.519,3.301,6.486,3.271,6.455L3.22,6.475l0.133,0.086
			C3.354,6.557,3.355,6.553,3.357,6.55z"/>
		<path fill="#6F007A" d="M3.15,6.795L2.961,6.747C2.99,6.77,3.02,6.791,3.049,6.813L3.15,6.795z"/>
		<path fill="#582789" d="M3.526,6.73c-0.046-0.05-0.093-0.1-0.139-0.148L3.353,6.561C3.352,6.565,3.35,6.57,3.348,6.575
			C3.35,6.57,3.352,6.565,3.353,6.561L3.22,6.475L2.803,6.631C2.855,6.67,2.909,6.709,2.961,6.747L3.15,6.795L3.526,6.73z"/>
		
			<linearGradient id="SVGID_37_" gradientUnits="userSpaceOnUse" x1="-1568.6357" y1="-1159.1436" x2="-1568.3335" y2="-1159.1436" gradientTransform="matrix(0.8058 0.5922 -0.5922 0.8058 580.2148 1868.917)">
			<stop  offset="0" style="stop-color:#FDE9FF"/>
			<stop  offset="1" style="stop-color:#E999FF"/>
		</linearGradient>
		<path fill="url(#SVGID_37_)" d="M2.742,5.813L2.58,6.035l0.003,0.034l0.218,0.139L2.936,6.06C2.87,5.979,2.807,5.896,2.742,5.813z
			"/>
		
			<linearGradient id="SVGID_38_" gradientUnits="userSpaceOnUse" x1="-1568.9609" y1="-1159.2085" x2="-1568.6343" y2="-1159.2085" gradientTransform="matrix(0.8058 0.5922 -0.5922 0.8058 580.2148 1868.917)">
			<stop  offset="0" style="stop-color:#FDE9FF"/>
			<stop  offset="1" style="stop-color:#E999FF"/>
		</linearGradient>
		<path fill="url(#SVGID_38_)" d="M2.551,5.543L2.535,5.545l0.045,0.49l0.162-0.223C2.678,5.725,2.613,5.635,2.551,5.543z"/>
		<polygon fill="#F5E3FF" points="2.801,6.208 2.583,6.069 2.614,6.413 		"/>
		<path fill="#942DA4" d="M3.094,6.252C3.041,6.188,2.987,6.125,2.936,6.06L2.801,6.208l0.215,0.137L3.094,6.252z"/>
		
			<linearGradient id="SVGID_39_" gradientUnits="userSpaceOnUse" x1="-1568.3833" y1="-1158.8491" x2="-1568.1001" y2="-1158.8491" gradientTransform="matrix(0.8058 0.5922 -0.5922 0.8058 580.2148 1868.917)">
			<stop  offset="0" style="stop-color:#FDE9FF"/>
			<stop  offset="1" style="stop-color:#EE7DFF"/>
		</linearGradient>
		<path fill="url(#SVGID_39_)" d="M3.016,6.345L2.801,6.208L2.614,6.413l0.008,0.084C2.678,6.538,2.733,6.579,2.788,6.62
			L3.016,6.345z"/>
		<path fill="#6F007A" d="M3.729,6.939C3.692,6.902,3.656,6.864,3.62,6.827L3.606,6.909L3.729,6.939z"/>
		<path fill="#942DA4" d="M3.62,6.827C3.588,6.795,3.557,6.763,3.526,6.73L3.15,6.795l0.456,0.114L3.62,6.827z"/>
		
			<linearGradient id="SVGID_40_" gradientUnits="userSpaceOnUse" x1="-1567.7964" y1="-1158.7559" x2="-1567.1597" y2="-1158.7559" gradientTransform="matrix(0.8058 0.5922 -0.5922 0.8058 580.2148 1868.917)">
			<stop  offset="0" style="stop-color:#6F007A"/>
			<stop  offset="0.3749" style="stop-color:#71037D"/>
			<stop  offset="0.6215" style="stop-color:#780C85"/>
			<stop  offset="0.8305" style="stop-color:#851A93"/>
			<stop  offset="1" style="stop-color:#942DA4"/>
		</linearGradient>
		<path fill="url(#SVGID_40_)" d="M3.126,6.828L3.025,6.845c0.171,0.126,0.343,0.252,0.513,0.377l0.045-0.28L3.126,6.828z"/>
		
			<linearGradient id="SVGID_41_" gradientUnits="userSpaceOnUse" x1="-1567.2485" y1="-1158.7793" x2="-1565.7456" y2="-1158.7793" gradientTransform="matrix(0.8058 0.5922 -0.5922 0.8058 580.2148 1868.917)">
			<stop  offset="0" style="stop-color:#942DA4"/>
			<stop  offset="0.2933" style="stop-color:#972FA7"/>
			<stop  offset="0.4862" style="stop-color:#9F37B0"/>
			<stop  offset="0.6502" style="stop-color:#AE44BE"/>
			<stop  offset="0.798" style="stop-color:#C357D4"/>
			<stop  offset="0.9337" style="stop-color:#DE6FEF"/>
			<stop  offset="1" style="stop-color:#EE7DFF"/>
		</linearGradient>
		<path fill="url(#SVGID_41_)" d="M4.733,7.983C4.57,7.821,4.406,7.66,4.242,7.501C4.236,7.507,4.229,7.515,4.222,7.521l0.018-0.024
			c-0.169-0.165-0.336-0.332-0.502-0.5l-0.122-0.03L3.571,7.246c0.356,0.261,0.711,0.522,1.066,0.783L4.733,7.983z"/>
		<path fill="#6F007A" d="M2.948,6.737C2.84,6.657,2.731,6.578,2.622,6.498l0.035,0.384L2.948,6.737z"/>
		<path fill="#942DA4" d="M2.9,6.803L2.609,6.948l0.008,0.094l0.669,0.046C3.158,6.993,3.029,6.897,2.9,6.803z"/>
		
			<linearGradient id="SVGID_42_" gradientUnits="userSpaceOnUse" x1="-1567.3027" y1="-1157.708" x2="-1567.4011" y2="-1158.6129" gradientTransform="matrix(0.8058 0.5922 -0.5922 0.8058 580.2148 1868.917)">
			<stop  offset="0.0056" style="stop-color:#FFFFFF"/>
			<stop  offset="1" style="stop-color:#E999FF"/>
		</linearGradient>
		<path fill="url(#SVGID_42_)" d="M3.877,7.421c-0.18-0.134-0.361-0.266-0.542-0.399L2.666,6.976l0.085,0.932L3.877,7.421z"/>
		
			<linearGradient id="SVGID_43_" gradientUnits="userSpaceOnUse" x1="-1566.7529" y1="-1158.6748" x2="-1566.3861" y2="-1157.5946" gradientTransform="matrix(0.8058 0.5922 -0.5922 0.8058 580.2148 1868.917)">
			<stop  offset="0" style="stop-color:#A46DE5"/>
			<stop  offset="0.4904" style="stop-color:#A46BE3"/>
			<stop  offset="0.667" style="stop-color:#A264DC"/>
			<stop  offset="0.793" style="stop-color:#9F59D1"/>
			<stop  offset="0.8947" style="stop-color:#9B48C0"/>
			<stop  offset="0.9809" style="stop-color:#9533AA"/>
			<stop  offset="1" style="stop-color:#942DA4"/>
		</linearGradient>
		<path fill="url(#SVGID_43_)" d="M3.91,7.444L2.783,7.931l0.016,0.171l0.956,0.331l0.907-0.436C4.411,7.813,4.161,7.629,3.91,7.444
			z"/>
		
			<linearGradient id="SVGID_44_" gradientUnits="userSpaceOnUse" x1="-1568.9448" y1="-1159.501" x2="-1567.6982" y2="-1159.501" gradientTransform="matrix(0.8058 0.5922 -0.5922 0.8058 580.2148 1868.917)">
			<stop  offset="0" style="stop-color:#000040"/>
			<stop  offset="0.2414" style="stop-color:#030041"/>
			<stop  offset="0.4002" style="stop-color:#0C0046"/>
			<stop  offset="0.5352" style="stop-color:#1A004E"/>
			<stop  offset="0.6568" style="stop-color:#300059"/>
			<stop  offset="0.7694" style="stop-color:#4B0067"/>
			<stop  offset="0.8742" style="stop-color:#6C0079"/>
			<stop  offset="0.882" style="stop-color:#6F007A"/>
		</linearGradient>
		<path fill="url(#SVGID_44_)" d="M3.393,5.46L2.539,5.566c0.244,0.361,0.519,0.692,0.807,1.008C3.438,6.312,3.547,6.061,3.66,5.813
			C3.57,5.694,3.48,5.578,3.393,5.46z"/>
		<path fill="#942DA4" d="M5.125,7.712C4.953,7.482,4.777,7.253,4.6,7.023C4.468,7.165,4.333,7.302,4.201,7.438
			c0.163,0.16,0.327,0.319,0.491,0.483L5.125,7.712z"/>
		
			<linearGradient id="SVGID_45_" gradientUnits="userSpaceOnUse" x1="-1567.8652" y1="-1159.3423" x2="-1566.356" y2="-1159.3423" gradientTransform="matrix(0.8058 0.5922 -0.5922 0.8058 580.2148 1868.917)">
			<stop  offset="0" style="stop-color:#EE7DFF"/>
			<stop  offset="0.764" style="stop-color:#6F007A"/>
		</linearGradient>
		<path fill="url(#SVGID_45_)" d="M3.688,5.827C3.574,6.075,3.467,6.325,3.373,6.588c0.281,0.307,0.577,0.6,0.875,0.892l0.005-0.01
			l-0.005,0.01C4.249,7.48,4.25,7.481,4.25,7.481c0.132-0.135,0.266-0.272,0.398-0.413C4.328,6.654,4.004,6.241,3.688,5.827z"/>
		<path fill="#EE7DFF" d="M5.653,7.301L5.419,6.444C5.245,6.682,5.063,6.928,4.896,7.156C5.139,7.234,5.398,7.26,5.653,7.301z"/>
		<path fill="#582789" d="M3.433,5.456C3.521,5.574,3.61,5.691,3.7,5.81c0.063-0.138,0.125-0.273,0.188-0.41L3.433,5.456z"/>
		
			<linearGradient id="SVGID_46_" gradientUnits="userSpaceOnUse" x1="-1567.9521" y1="-1160.3281" x2="-1566.2686" y2="-1160.3281" gradientTransform="matrix(0.8058 0.5922 -0.5922 0.8058 580.2148 1868.917)">
			<stop  offset="0" style="stop-color:#EE7DFF"/>
			<stop  offset="0.1529" style="stop-color:#D968E9"/>
			<stop  offset="0.4694" style="stop-color:#A333B0"/>
			<stop  offset="0.7472" style="stop-color:#6F007A"/>
		</linearGradient>
		<path fill="url(#SVGID_46_)" d="M5.122,5.218L3.916,5.369c-0.063,0.137-0.125,0.273-0.188,0.41
			c0.316,0.414,0.641,0.828,0.961,1.242c0.249-0.264,0.49-0.538,0.703-0.818L5.122,5.218z"/>
		
			<linearGradient id="SVGID_47_" gradientUnits="userSpaceOnUse" x1="-1565.7539" y1="-1160.1187" x2="-1566.3049" y2="-1159.4248" gradientTransform="matrix(0.8058 0.5922 -0.5922 0.8058 580.2148 1868.917)">
			<stop  offset="0" style="stop-color:#942DA4"/>
			<stop  offset="1" style="stop-color:#E999FF"/>
		</linearGradient>
		<path fill="url(#SVGID_47_)" d="M5.704,7.435L5.637,7.188C5.382,7.146,5.121,7.12,4.878,7.042C5.045,6.814,5.227,6.567,5.401,6.33
			L5.359,6.178C5.147,6.459,4.905,6.733,4.656,6.997C4.833,7.227,5.01,7.456,5.183,7.686L5.704,7.435z"/>
		<path fill="#942DA4" d="M1.449,6.061L1.346,6.286l0.215,0.831l0.013,0.012c0.022-0.045,0.044-0.091,0.067-0.135L1.449,6.061z"/>
		<path fill="#942DA4" d="M2.926,7.947L1.644,7.004l-0.003-0.01c-0.023,0.045-0.045,0.09-0.067,0.135l1.222,1.113l0.031,0.009
			C2.874,8.155,2.92,8.059,2.959,7.956L2.926,7.947z"/>
		<path fill="#F9F3FF" d="M8.354,9.069L5.889,8.762c-0.001,0.121-0.018,0.241-0.04,0.36L8.395,9.34l0.03-0.006
			c-0.016-0.09-0.025-0.18-0.044-0.269L8.354,9.069z"/>
		<path fill="#DDB8FF" d="M11.848,8.646l-3.467,0.42c0.019,0.089,0.028,0.179,0.044,0.269l3.429-0.402l0.014-0.004
			c0.004-0.095,0.002-0.192,0.003-0.291L11.848,8.646z"/>
		<path fill="#EE7DFF" d="M14.543,7.293l0.11-0.766l-0.177,0.598l-0.001,0.002c0.019,0.061,0.039,0.119,0.058,0.178L14.543,7.293z"
			/>
		<path fill="#942DA4" d="M14.497,7.119l-0.86,0.754c0.02,0.066,0.029,0.136,0.04,0.203l0.862-0.782
			C14.525,7.236,14.51,7.179,14.497,7.119z"/>
		<path fill="#E999FF" d="M13.584,7.921L11.87,8.637c-0.001,0.099,0.001,0.196-0.003,0.291l1.771-0.815l0.039-0.036
			c-0.011-0.067-0.021-0.137-0.04-0.203L13.584,7.921z"/>
		<path fill="#A46DE5" d="M5.827,8.755L2.959,7.956C2.92,8.059,2.874,8.155,2.826,8.251L5.82,9.119l0.028,0.003
			c0.022-0.119,0.039-0.239,0.04-0.36L5.827,8.755z"/>
	</g>
</g>
</svg>
